<svg xmlns="http://www.w3.org/2000/svg">
<symbol id="book" fill="currentColor" viewBox="0 0 448 512"><path d="M96 0C43 0 0 43 0 96L0 416c0 53 43 96 96 96l288 0 32 0c17.7 0 32-14.3 32-32s-14.3-32-32-32l0-64c17.7 0 32-14.3 32-32l0-320c0-17.7-14.3-32-32-32L384 0 96 0zm0 384l256 0 0 64L96 448c-17.7 0-32-14.3-32-32s14.3-32 32-32zm32-240c0-8.8 7.2-16 16-16l192 0c8.8 0 16 7.2 16 16s-7.2 16-16 16l-192 0c-8.8 0-16-7.2-16-16zm16 48l192 0c8.8 0 16 7.2 16 16s-7.2 16-16 16l-192 0c-8.8 0-16-7.2-16-16s7.2-16 16-16z"/></symbol>
<symbol id="series" fill="currentColor" viewBox="0 0 512 512"><path d="M0 32C0 14.3 14.3 0 32 0L96 0c17.7 0 32 14.3 32 32l0 64L0 96 0 32zm0 96l128 0 0 256L0 384 0 128zM0 416l128 0 0 64c0 17.7-14.3 32-32 32l-64 0c-17.7 0-32-14.3-32-32l0-64zM160 32c0-17.7 14.3-32 32-32l64 0c17.7 0 32 14.3 32 32l0 64L160 96l0-64zm0 96l128 0 0 256-128 0 0-256zm0 288l128 0 0 64c0 17.7-14.3 32-32 32l-64 0c-17.7 0-32-14.3-32-32l0-64zm203.6-19.9L320 232.6l0-89.9 100.4-26.9 66 247.4L363.6 396.1zM412.2 85L320 109.6 320 11l36.9-9.9c16.9-4.6 34.4 5.5 38.9 22.6L412.2 85zM371.8 427l122.8-32.9 16.3 61.1c4.5 17-5.5 34.5-22.5 39.1l-61.4 16.5c-16.9 4.6-34.4-5.5-38.9-22.6L371.8 427z"/></symbol>
<!-- Genres -->
<symbol id="genre-fantasy" fill="currentColor" viewBox="0 0 640 512"><path d="M352 124.5l-51.9-13c-6.5-1.6-11.3-7.1-12-13.8s2.8-13.1 8.7-16.1l40.8-20.4L294.4 28.8c-5.5-4.1-7.8-11.3-5.6-17.9S297.1 0 304 0L416 0l32 0 16 0c30.2 0 58.7 14.2 76.8 38.4l57.6 76.8c6.2 8.3 9.6 18.4 9.6 28.8c0 26.5-21.5 48-48 48l-21.5 0c-17 0-33.3-6.7-45.3-18.7L480 160l-32 0 0 21.5c0 24.8 12.8 47.9 33.8 61.1l106.6 66.6c32.1 20.1 51.6 55.2 51.6 93.1C640 462.9 590.9 512 530.2 512L496 512l-64 0L32.3 512c-3.3 0-6.6-.4-9.6-1.4C13.5 507.8 6 501 2.4 492.1C1 488.7 .2 485.2 0 481.4c-.2-3.7 .3-7.3 1.3-10.7c2.8-9.2 9.6-16.7 18.6-20.4c3-1.2 6.2-2 9.5-2.2L433.3 412c8.3-.7 14.7-7.7 14.7-16.1c0-4.3-1.7-8.4-4.7-11.4l-44.4-44.4c-30-30-46.9-70.7-46.9-113.1l0-45.5 0-57zM512 72.3c0-.1 0-.2 0-.3s0-.2 0-.3l0 .6zm-1.3 7.4L464.3 68.1c-.2 1.3-.3 2.6-.3 3.9c0 13.3 10.7 24 24 24c10.6 0 19.5-6.8 22.7-16.3zM130.9 116.5c16.3-14.5 40.4-16.2 58.5-4.1l130.6 87 0 27.5c0 32.8 8.4 64.8 24 93l-232 0c-6.7 0-12.7-4.2-15-10.4s-.5-13.3 4.6-17.7L171 232.3 18.4 255.8c-7 1.1-13.9-2.6-16.9-9s-1.5-14.1 3.8-18.8L130.9 116.5z"/></symbol>
<symbol id="genre-scifi" fill="currentColor" viewBox="0 0 640 512"><path d="M320 112c59.2 0 109.6 37.9 128.3 90.7c5 14.2 7.7 29.4 7.7 45.3c0 0-40 40-136 40s-136-40-136-40c0-15.9 2.7-31.1 7.7-45.3c18.7-52.8 69-90.7 128.3-90.7zm0-48c-90.1 0-165.2 64.8-180.9 150.4C55.1 237.5 0 276.2 0 320c0 70.7 143.3 128 320 128s320-57.3 320-128c0-43.8-55.1-82.5-139.1-105.6C485.2 128.8 410.2 64 320 64zm0 288a24 24 0 1 1 0 48 24 24 0 1 1 0-48zM104 328a24 24 0 1 1 48 0 24 24 0 1 1 -48 0zm408-24a24 24 0 1 1 0 48 24 24 0 1 1 0-48z"/></symbol>
<symbol id="genre-litrpg" fill="currentColor" viewBox="0 0 448 512"><path d="M96 0h320c17.7 0 32 14.3 32 32v320c0 17.7-14.3 32-32 32v64c17.7 0 32 14.3 32 32s-14.3 32-32 32H96c-53 0-96-43-96-96V96C0 43 43 0 96 0Zm0 384c-17.7 0-32 14.3-32 32s14.3 32 32 32h256v-64H96ZM229.158 41.256l-117.647 70.588c-4.294 2.588-6.882 7.177-6.882 12.118v131.764c0 4.941 2.588 9.529 6.882 12.118l117.647 70.588a14.02 14.02 0 0 0 14.529 0l117.647-70.588c4.294-2.589 6.882-7.177 6.882-12.118V123.962c0-5-2.647-9.589-6.882-12.118L243.687 41.256a14.016 14.016 0 0 0-14.529 0Zm7.235 39.294 40.764 66.941h-81.529l40.765-66.941Zm70 60.647-28.177-46.294 50.294 30.235-22.117 16.059Zm33.529 59.588-19.294-35.059 19.294-14v49.059Zm-63.353-25.059-40.176 63.118-40.176-63.118h80.352Zm-26.058 102.47 44.646-3.529-44.646 26.765v-23.236ZM132.864 151.667l19.294 14.059-19.294 35v-49.059Zm130.646 97.118 37.883-59.529 29.764 54.117-67.647 5.412ZM194.57 94.903v.059l-28.177 46.235-22.117-16.118 50.294-30.176Zm-16.942 179.646 44.647 3.589v23.235l-44.647-26.824Zm-6.235-85.293v.058l37.882 59.471-67.646-5.412 29.764-54.117Z"/></symbol>
<symbol id="genre-horror" fill="currentColor" viewBox="0 0 576 512"><path d="M488 0c9.4 0 18.3 3.7 25 10.3L557.7 55c6.6 6.6 10.3 15.6 10.3 25s-3.7 18.3-10.3 25l-97 97c-3 3-4.7 7.1-4.7 11.3l0 31.9c0 17.4-9.4 33.5-24.7 42l-31 17.2L295.9 200.1l-11.3-11.3L463 10.3C469.7 3.7 478.6 0 488 0zM432 160a16 16 0 1 0 0-32 16 16 0 1 0 0 32zm80-80a16 16 0 1 0 -32 0 16 16 0 1 0 32 0zM262 211.4l11.3 11.3 126 126c6.2 6.2 6.2 16.4 0 22.6C321.4 449.2 235.3 512 112 512c-25.6 0-50.9-4.2-69.5-8.4c-9.4-2.1-17.2-4.2-22.7-5.7c-2.8-.8-4.9-1.4-6.5-1.9c-.8-.2-1.4-.4-1.8-.6l-.5-.2-.1 0c0 0 0 0 0 0s0 0 0 0s0 0 0 0L16 480l-5.1 15.2c-5.3-1.8-9.2-6.1-10.5-11.5s.3-11.1 4.3-15l246-246L262 211.4z"/></symbol>
<symbol id="genre-thriller" fill="currentColor" viewBox="0 0 512 512"><path d="M228.3 469.1L47.6 300.4c-4.2-3.9-8.2-8.1-11.9-12.4l87 0c22.6 0 43-13.6 51.7-34.5l10.5-25.2 49.3 109.5c3.8 8.5 12.1 14 21.4 14.1s17.8-5 22-13.3L320 253.7l1.7 3.4c9.5 19 28.9 31 50.1 31l104.5 0c-3.7 4.3-7.7 8.5-11.9 12.4L283.7 469.1c-7.5 7-17.4 10.9-27.7 10.9s-20.2-3.9-27.7-10.9zM503.7 240l-132 0c-3 0-5.8-1.7-7.2-4.4l-23.2-46.3c-4.1-8.1-12.4-13.3-21.5-13.3s-17.4 5.1-21.5 13.3l-41.4 82.8L205.9 158.2c-3.9-8.7-12.7-14.3-22.2-14.1s-18.1 5.9-21.8 14.8l-31.8 76.3c-1.2 3-4.2 4.9-7.4 4.9L16 240c-2.6 0-5 .4-7.3 1.1C3 225.2 0 208.2 0 190.9l0-5.8c0-69.9 50.5-129.5 119.4-141C165 36.5 211.4 51.4 244 84l12 12 12-12c32.6-32.6 79-47.5 124.6-39.9C461.5 55.6 512 115.2 512 185.1l0 5.8c0 16.9-2.8 33.5-8.3 49.1z"/></symbol>
</svg>