<svg xmlns="http://www.w3.org/2000/svg">
<symbol id="book" fill="currentColor" viewBox="0 0 448 512"><path d="M96 0C43 0 0 43 0 96L0 416c0 53 43 96 96 96l288 0 32 0c17.7 0 32-14.3 32-32s-14.3-32-32-32l0-64c17.7 0 32-14.3 32-32l0-320c0-17.7-14.3-32-32-32L384 0 96 0zm0 384l256 0 0 64L96 448c-17.7 0-32-14.3-32-32s14.3-32 32-32zm32-240c0-8.8 7.2-16 16-16l192 0c8.8 0 16 7.2 16 16s-7.2 16-16 16l-192 0c-8.8 0-16-7.2-16-16zm16 48l192 0c8.8 0 16 7.2 16 16s-7.2 16-16 16l-192 0c-8.8 0-16-7.2-16-16s7.2-16 16-16z"/></symbol>
<symbol id="series" fill="currentColor" viewBox="0 0 512 512"><path d="M0 32C0 14.3 14.3 0 32 0L96 0c17.7 0 32 14.3 32 32l0 64L0 96 0 32zm0 96l128 0 0 256L0 384 0 128zM0 416l128 0 0 64c0 17.7-14.3 32-32 32l-64 0c-17.7 0-32-14.3-32-32l0-64zM160 32c0-17.7 14.3-32 32-32l64 0c17.7 0 32 14.3 32 32l0 64L160 96l0-64zm0 96l128 0 0 256-128 0 0-256zm0 288l128 0 0 64c0 17.7-14.3 32-32 32l-64 0c-17.7 0-32-14.3-32-32l0-64zm203.6-19.9L320 232.6l0-89.9 100.4-26.9 66 247.4L363.6 396.1zM412.2 85L320 109.6 320 11l36.9-9.9c16.9-4.6 34.4 5.5 38.9 22.6L412.2 85zM371.8 427l122.8-32.9 16.3 61.1c4.5 17-5.5 34.5-22.5 39.1l-61.4 16.5c-16.9 4.6-34.4-5.5-38.9-22.6L371.8 427z"/></symbol>
<symbol id="series-complete" viewBox="0 0 640 512"><path fill="currentColor" d="M0 32C0 14.3 14.3 0 32 0L96 0c17.7 0 32 14.3 32 32l0 64L0 96 0 32zm0 96l128 0 0 256L0 384 0 128zM0 416l128 0 0 64c0 17.7-14.3 32-32 32l-64 0c-17.7 0-32-14.3-32-32l0-64zM160 32c0-17.7 14.3-32 32-32l64 0c17.7 0 32 14.3 32 32l0 64L160 96l0-64zm0 96l128 0 0 256-128 0 0-256zm0 288l128 0 0 64c0 17.7-14.3 32-32 32l-64 0c-17.7 0-32-14.3-32-32l0-64zM320 11l36.9-9.9c16.9-4.6 34.4 5.5 38.9 22.6L412.2 85 320 109.6 320 11zm0 131.7l100.4-26.9 22.5 84.4c-47.3 14.9-85.9 49.3-106.6 93.7L320 232.6l0-89.9z"/><path fill="#22c55e" d="M352 368c0-79.5 64.5-144 144-144s144 64.5 144 144s-64.5 144-144 144s-144-64.5-144-144zm211.3-20.7c6.2-6.2 6.2-16.4 0-22.6s-16.4-6.2-22.6 0L480 385.4l-28.7-28.7c-6.2-6.2-16.4-6.2-22.6 0s-6.2 16.4 0 22.6l40 40c6.2 6.2 16.4 6.2 22.6 0l72-72z"/></symbol>
<!-- Genres -->
<symbol id="genre-fantasy" fill="currentColor" viewBox="0 0 640 512"><path d="M352 124.5l-51.9-13c-6.5-1.6-11.3-7.1-12-13.8s2.8-13.1 8.7-16.1l40.8-20.4L294.4 28.8c-5.5-4.1-7.8-11.3-5.6-17.9S297.1 0 304 0L416 0l32 0 16 0c30.2 0 58.7 14.2 76.8 38.4l57.6 76.8c6.2 8.3 9.6 18.4 9.6 28.8c0 26.5-21.5 48-48 48l-21.5 0c-17 0-33.3-6.7-45.3-18.7L480 160l-32 0 0 21.5c0 24.8 12.8 47.9 33.8 61.1l106.6 66.6c32.1 20.1 51.6 55.2 51.6 93.1C640 462.9 590.9 512 530.2 512L496 512l-64 0L32.3 512c-3.3 0-6.6-.4-9.6-1.4C13.5 507.8 6 501 2.4 492.1C1 488.7 .2 485.2 0 481.4c-.2-3.7 .3-7.3 1.3-10.7c2.8-9.2 9.6-16.7 18.6-20.4c3-1.2 6.2-2 9.5-2.2L433.3 412c8.3-.7 14.7-7.7 14.7-16.1c0-4.3-1.7-8.4-4.7-11.4l-44.4-44.4c-30-30-46.9-70.7-46.9-113.1l0-45.5 0-57zM512 72.3c0-.1 0-.2 0-.3s0-.2 0-.3l0 .6zm-1.3 7.4L464.3 68.1c-.2 1.3-.3 2.6-.3 3.9c0 13.3 10.7 24 24 24c10.6 0 19.5-6.8 22.7-16.3zM130.9 116.5c16.3-14.5 40.4-16.2 58.5-4.1l130.6 87 0 27.5c0 32.8 8.4 64.8 24 93l-232 0c-6.7 0-12.7-4.2-15-10.4s-.5-13.3 4.6-17.7L171 232.3 18.4 255.8c-7 1.1-13.9-2.6-16.9-9s-1.5-14.1 3.8-18.8L130.9 116.5z"/></symbol>
<symbol id="genre-scifi" fill="currentColor" viewBox="0 0 640 512"><path d="M320 112c59.2 0 109.6 37.9 128.3 90.7c5 14.2 7.7 29.4 7.7 45.3c0 0-40 40-136 40s-136-40-136-40c0-15.9 2.7-31.1 7.7-45.3c18.7-52.8 69-90.7 128.3-90.7zm0-48c-90.1 0-165.2 64.8-180.9 150.4C55.1 237.5 0 276.2 0 320c0 70.7 143.3 128 320 128s320-57.3 320-128c0-43.8-55.1-82.5-139.1-105.6C485.2 128.8 410.2 64 320 64zm0 288a24 24 0 1 1 0 48 24 24 0 1 1 0-48zM104 328a24 24 0 1 1 48 0 24 24 0 1 1 -48 0zm408-24a24 24 0 1 1 0 48 24 24 0 1 1 0-48z"/></symbol>
<symbol id="genre-litrpg" fill="currentColor" viewBox="0 0 448 512"><path d="M96 0h320c17.7 0 32 14.3 32 32v320c0 17.7-14.3 32-32 32v64c17.7 0 32 14.3 32 32s-14.3 32-32 32H96c-53 0-96-43-96-96V96C0 43 43 0 96 0Zm0 384c-17.7 0-32 14.3-32 32s14.3 32 32 32h256v-64H96ZM229.158 41.256l-117.647 70.588c-4.294 2.588-6.882 7.177-6.882 12.118v131.764c0 4.941 2.588 9.529 6.882 12.118l117.647 70.588a14.02 14.02 0 0 0 14.529 0l117.647-70.588c4.294-2.589 6.882-7.177 6.882-12.118V123.962c0-5-2.647-9.589-6.882-12.118L243.687 41.256a14.016 14.016 0 0 0-14.529 0Zm7.235 39.294 40.764 66.941h-81.529l40.765-66.941Zm70 60.647-28.177-46.294 50.294 30.235-22.117 16.059Zm33.529 59.588-19.294-35.059 19.294-14v49.059Zm-63.353-25.059-40.176 63.118-40.176-63.118h80.352Zm-26.058 102.47 44.646-3.529-44.646 26.765v-23.236ZM132.864 151.667l19.294 14.059-19.294 35v-49.059Zm130.646 97.118 37.883-59.529 29.764 54.117-67.647 5.412ZM194.57 94.903v.059l-28.177 46.235-22.117-16.118 50.294-30.176Zm-16.942 179.646 44.647 3.589v23.235l-44.647-26.824Zm-6.235-85.293v.058l37.882 59.471-67.646-5.412 29.764-54.117Z"/></symbol>
<symbol id="genre-horror" fill="currentColor" viewBox="0 0 576 512"><path d="M488 0c9.4 0 18.3 3.7 25 10.3L557.7 55c6.6 6.6 10.3 15.6 10.3 25s-3.7 18.3-10.3 25l-97 97c-3 3-4.7 7.1-4.7 11.3l0 31.9c0 17.4-9.4 33.5-24.7 42l-31 17.2L295.9 200.1l-11.3-11.3L463 10.3C469.7 3.7 478.6 0 488 0zM432 160a16 16 0 1 0 0-32 16 16 0 1 0 0 32zm80-80a16 16 0 1 0 -32 0 16 16 0 1 0 32 0zM262 211.4l11.3 11.3 126 126c6.2 6.2 6.2 16.4 0 22.6C321.4 449.2 235.3 512 112 512c-25.6 0-50.9-4.2-69.5-8.4c-9.4-2.1-17.2-4.2-22.7-5.7c-2.8-.8-4.9-1.4-6.5-1.9c-.8-.2-1.4-.4-1.8-.6l-.5-.2-.1 0c0 0 0 0 0 0s0 0 0 0s0 0 0 0L16 480l-5.1 15.2c-5.3-1.8-9.2-6.1-10.5-11.5s.3-11.1 4.3-15l246-246L262 211.4z"/></symbol>
<symbol id="genre-thriller" fill="currentColor" viewBox="0 0 512 512"><path d="M228.3 469.1L47.6 300.4c-4.2-3.9-8.2-8.1-11.9-12.4l87 0c22.6 0 43-13.6 51.7-34.5l10.5-25.2 49.3 109.5c3.8 8.5 12.1 14 21.4 14.1s17.8-5 22-13.3L320 253.7l1.7 3.4c9.5 19 28.9 31 50.1 31l104.5 0c-3.7 4.3-7.7 8.5-11.9 12.4L283.7 469.1c-7.5 7-17.4 10.9-27.7 10.9s-20.2-3.9-27.7-10.9zM503.7 240l-132 0c-3 0-5.8-1.7-7.2-4.4l-23.2-46.3c-4.1-8.1-12.4-13.3-21.5-13.3s-17.4 5.1-21.5 13.3l-41.4 82.8L205.9 158.2c-3.9-8.7-12.7-14.3-22.2-14.1s-18.1 5.9-21.8 14.8l-31.8 76.3c-1.2 3-4.2 4.9-7.4 4.9L16 240c-2.6 0-5 .4-7.3 1.1C3 225.2 0 208.2 0 190.9l0-5.8c0-69.9 50.5-129.5 119.4-141C165 36.5 211.4 51.4 244 84l12 12 12-12c32.6-32.6 79-47.5 124.6-39.9C461.5 55.6 512 115.2 512 185.1l0 5.8c0 16.9-2.8 33.5-8.3 49.1z"/></symbol>
<symbol id="genre-adventure" fill="currentColor" viewBox="0 0 512 512"><path d="M256 512A256 256 0 1 0 256 0a256 256 0 1 0 0 512zm50.7-186.9L162.4 380.6c-19.4 7.5-38.5-11.6-31-31l55.5-144.3c3.3-8.5 9.9-15.1 18.4-18.4l144.3-55.5c19.4-7.5 38.5 11.6 31 31L325.1 306.7c-3.2 8.5-9.9 15.1-18.4 18.4zM288 256a32 32 0 1 0 -64 0 32 32 0 1 0 64 0z"/></symbol>
<symbol id="genre-superhero" fill="currentColor" viewBox="0 0 576 512"><path d="M288 64C64 64 0 160 0 272S80 448 176 448l8.4 0c24.2 0 46.4-13.7 57.2-35.4l23.2-46.3c4.4-8.8 13.3-14.3 23.2-14.3s18.8 5.5 23.2 14.3l23.2 46.3c10.8 21.7 33 35.4 57.2 35.4l8.4 0c96 0 176-64 176-176s-64-208-288-208zM96 256a64 64 0 1 1 128 0A64 64 0 1 1 96 256zm320-64a64 64 0 1 1 0 128 64 64 0 1 1 0-128z"/></symbol>
<symbol id="genre-urbanfantasy" fill="currentColor" viewBox="0 0 384 512"><path d="M102.4 10.9l-91 104C4.1 123.3 0 134.2 0 145.4c0 4.4 .6 8.7 1.8 12.9L97.3 488.9c4 13.7 16.5 23.1 30.7 23.1l127.9 0c14.3 0 26.8-9.4 30.7-23.1l95.5-330.6c1.2-4.2 1.8-8.5 1.8-12.9c0-11.2-4.1-22.1-11.5-30.6l-91-104C275.5 4 266.7 0 257.5 0l-131 0c-9.2 0-18 4-24.1 10.9zM216 120l0 40 48 0c13.3 0 24 10.7 24 24s-10.7 24-24 24l-48 0 0 120c0 13.3-10.7 24-24 24s-24-10.7-24-24l0-120-48 0c-13.3 0-24-10.7-24-24s10.7-24 24-24l48 0 0-40c0-13.3 10.7-24 24-24s24 10.7 24 24z"/></symbol>
<symbol id="genre-romance" fill="currentColor" viewBox="0 0 512 512"><path d="M0 224.2C0 100.6 100.2 0 224 0l24 0c95.2 0 181.2 69.3 197.3 160.2c2.3 13 6.8 25.7 15.1 36l42 52.6c6.2 7.8 9.6 17.4 9.6 27.4c0 24.2-19.6 43.8-43.8 43.8L448 320l0 64c0 35.3-28.7 64-64 64l-64 0 0 32c0 17.7-14.3 32-32 32L96 512c-17.7 0-32-14.3-32-32l0-72.7c0-16.7-6.9-32.5-17.1-45.8C16.6 322.4 0 274.1 0 224.2zm112-35c0 16.2 6.5 31.8 17.9 43.3l82.7 82.7c6.2 6.2 16.4 6.2 22.6 0l82.7-82.7c11.5-11.5 17.9-27.1 17.9-43.3c0-33.8-27.4-61.3-61.3-61.3c-16.2 0-31.8 6.5-43.3 17.9l-7.4 7.4-7.4-7.4c-11.5-11.5-27.1-17.9-43.3-17.9c-33.8 0-61.3 27.4-61.3 61.3z"/></symbol>
<symbol id="genre-history" fill="currentColor" viewBox="0 0 512 512"><path d="M75 75L41 41C25.9 25.9 0 36.6 0 57.9L0 168c0 13.3 10.7 24 24 24l110.1 0c21.4 0 32.1-25.9 17-41l-30.8-30.8C155 85.5 203 64 256 64c106 0 192 86 192 192s-86 192-192 192c-40.8 0-78.6-12.7-109.7-34.4c-14.5-10.1-34.4-6.6-44.6 7.9s-6.6 34.4 7.9 44.6C151.2 495 201.7 512 256 512c141.4 0 256-114.6 256-256S397.4 0 256 0C185.3 0 121.3 28.7 75 75zm181 53c-13.3 0-24 10.7-24 24l0 104c0 6.4 2.5 12.5 7 17l72 72c9.4 9.4 24.6 9.4 33.9 0s9.4-24.6 0-33.9l-65-65 0-94.1c0-13.3-10.7-24-24-24z"/></symbol>
<symbol id="genre-bio" fill="currentColor" viewBox="0 0 448 512"><path d="M0 96C0 43 43 0 96 0L384 0l32 0c17.7 0 32 14.3 32 32l0 320c0 17.7-14.3 32-32 32l0 64c17.7 0 32 14.3 32 32s-14.3 32-32 32l-32 0L96 512c-53 0-96-43-96-96L0 96zM64 416c0 17.7 14.3 32 32 32l256 0 0-64L96 384c-17.7 0-32 14.3-32 32zM304 128a64 64 0 1 0 -128 0 64 64 0 1 0 128 0zM128 304c0 8.8 7.2 16 16 16l192 0c8.8 0 16-7.2 16-16c0-44.2-35.8-80-80-80l-64 0c-44.2 0-80 35.8-80 80z"/></symbol>
<symbol id="genre-wellness" fill="currentColor" viewBox="0 0 576 512"><path d="M183.1 235.3c33.7 20.7 62.9 48.1 85.8 80.5c7 9.9 13.4 20.3 19.1 31c5.7-10.8 12.1-21.1 19.1-31c22.9-32.4 52.1-59.8 85.8-80.5C437.6 207.8 490.1 192 546 192l9.9 0c11.1 0 20.1 9 20.1 20.1C576 360.1 456.1 480 308.1 480L288 480l-20.1 0C119.9 480 0 360.1 0 212.1C0 201 9 192 20.1 192l9.9 0c55.9 0 108.4 15.8 153.1 43.3zM301.5 37.6c15.7 16.9 61.1 71.8 84.4 164.6c-38 21.6-71.4 50.8-97.9 85.6c-26.5-34.8-59.9-63.9-97.9-85.6c23.2-92.8 68.6-147.7 84.4-164.6C278 33.9 282.9 32 288 32s10 1.9 13.5 5.6z"/></symbol>
<symbol id="genre-fiction" fill="currentColor" viewBox="0 0 512 512"><path d="M278.5 215.6L23 471c-9.4 9.4-9.4 24.6 0 33.9s24.6 9.4 33.9 0l57-57 68 0c49.7 0 97.9-14.4 139-41c11.1-7.2 5.5-23-7.8-23c-5.1 0-9.2-4.1-9.2-9.2c0-4.1 2.7-7.6 6.5-8.8l81-24.3c2.5-.8 4.8-2.1 6.7-4l22.4-22.4c10.1-10.1 2.9-27.3-11.3-27.3l-32.2 0c-5.1 0-9.2-4.1-9.2-9.2c0-4.1 2.7-7.6 6.5-8.8l112-33.6c4-1.2 7.4-3.9 9.3-7.7C506.4 207.6 512 184.1 512 160c0-41-16.3-80.3-45.3-109.3l-5.5-5.5C432.3 16.3 393 0 352 0s-80.3 16.3-109.3 45.3L139 149C91 197 64 262.1 64 330l0 55.3L253.6 195.8c6.2-6.2 16.4-6.2 22.6 0c5.4 5.4 6.1 13.6 2.2 19.8z"/></symbol>
<symbol id="genre-academia" fill="currentColor" viewBox="0 0 640 640"><path d="M32 256C32 220.7 60.7 192 96 192L160 192L287.9 76.9C306.2 60.5 333.9 60.5 352.1 76.9L480 192L544 192C579.3 192 608 220.7 608 256L608 512C608 547.3 579.3 576 544 576L96 576C60.7 576 32 547.3 32 512L32 256zM256 440L256 528L384 528L384 440C384 417.9 366.1 400 344 400L296 400C273.9 400 256 417.9 256 440zM144 448C152.8 448 160 440.8 160 432L160 400C160 391.2 152.8 384 144 384L112 384C103.2 384 96 391.2 96 400L96 432C96 440.8 103.2 448 112 448L144 448zM160 304L160 272C160 263.2 152.8 256 144 256L112 256C103.2 256 96 263.2 96 272L96 304C96 312.8 103.2 320 112 320L144 320C152.8 320 160 312.8 160 304zM528 448C536.8 448 544 440.8 544 432L544 400C544 391.2 536.8 384 528 384L496 384C487.2 384 480 391.2 480 400L480 432C480 440.8 487.2 448 496 448L528 448zM544 304L544 272C544 263.2 536.8 256 528 256L496 256C487.2 256 480 263.2 480 272L480 304C480 312.8 487.2 320 496 320L528 320C536.8 320 544 312.8 544 304zM320 320C355.3 320 384 291.3 384 256C384 220.7 355.3 192 320 192C284.7 192 256 220.7 256 256C256 291.3 284.7 320 320 320z"/></symbol>

<symbol id="crown" fill="currentColor" viewBox="0 0 640 640"><path d="M339 155.2C351.5 148.4 360 135.2 360 120C360 97.9 342.1 80 320 80C297.9 80 280 97.9 280 120C280 135.2 288.5 148.4 301 155.2L208 288L120.9 222.7C125.4 216.3 128 208.4 128 200C128 177.9 110.1 160 88 160C65.9 160 48 177.9 48 200C48 221.8 65.5 239.6 87.2 240L128 512L512 512L552.8 240C574.5 239.6 592 221.8 592 200C592 177.9 574.1 160 552 160C529.9 160 512 177.9 512 200C512 208.4 514.6 216.3 519.1 222.7L432 288L339 155.2z"/></symbol>
<symbol id="seedling" fill="currentColor" viewBox="0 0 512 512"><path d="M512 32c0 113.6-84.6 207.5-194.2 222c-7.1-53.4-30.6-101.6-65.3-139.3C290.8 46.3 364 0 448 0l32 0c17.7 0 32 14.3 32 32zM0 96C0 78.3 14.3 64 32 64l32 0c123.7 0 224 100.3 224 224l0 32 0 160c0 17.7-14.3 32-32 32s-32-14.3-32-32l0-160C100.3 320 0 219.7 0 96z"/></symbol>
<symbol id="maple" fill="currentColor" viewBox="0 0 512 512"><path d="M339.8 7.5l15.8 31.6c7.1 14.2 23.6 21.1 38.7 16l67.6-22.5c1.4-.5 2.9-.7 4.4-.7c7.6 0 13.8 6.2 13.8 13.8c0 1.5-.2 2.9-.7 4.4l-22.5 67.6c-5 15.1 1.8 31.6 16 38.7l31.6 15.8c4.6 2.3 7.5 7 7.5 12.2c0 4.7-2.4 9.1-6.4 11.6l-97.9 61.2c-6.8 4.3-3.8 14.8 4.2 14.8l38.3 0c7.6 0 13.8 6.2 13.8 13.8c0 1.5-.2 2.9-.7 4.4l-8.5 25.5c-4.1 12.3-.3 25.9 9.5 34.4l34.3 29.4c3.4 2.9 5.4 7.2 5.4 11.7c0 5.5-3 10.6-7.8 13.4l-28.9 16.5c-11.6 6.6-17.9 19.8-15.7 33l4.2 25.1c.1 .6 .2 1.3 .2 1.9c0 7.6-7.2 13.2-14.6 11.2l-155-40.4c-8.2-2.1-16.6 2.4-19.2 10.4l-8.5 25.4c-1.7 5-6.3 8.4-11.6 8.4c-4.4 0-8.5-2.4-10.7-6.3l-53-95.3L73 505c-9.4 9.4-24.6 9.4-33.9 0s-9.4-24.6 0-33.9L239.3 270.8c3.6-6.1 2.7-14.1-2.5-19.4c-6.2-6.2-16.4-6.2-22.6 0l-84 84L22.3 275.5c-3.9-2.2-6.3-6.2-6.3-10.7c0-5.3 3.4-9.9 8.4-11.6l25.4-8.5c8-2.7 12.5-11.1 10.4-19.2L19.8 70.6C17.9 63.2 23.4 56 31 56c.6 0 1.3 .1 1.9 .2L58 60.3c13.2 2.2 26.4-4.1 33-15.7l16.5-28.9C110.3 11 115.4 8 120.9 8c4.5 0 8.8 2 11.7 5.4L162 47.7c8.5 9.9 22.1 13.6 34.4 9.5l25.5-8.5c1.4-.5 2.9-.7 4.4-.7c7.6 0 13.8 6.2 13.8 13.8l0 38.3c0 8 10.5 11.1 14.8 4.2L316 6.4c2.5-4 6.9-6.4 11.6-6.4c5.2 0 9.9 2.9 12.2 7.5z"/></symbol>
<symbol id="pen-nib" fill="currentColor" viewBox="0 0 512 512"><path d="M368.4 18.3L312.7 74.1 437.9 199.3l55.7-55.7c21.9-21.9 21.9-57.3 0-79.2L447.6 18.3c-21.9-21.9-57.3-21.9-79.2 0zM288 94.6l-9.2 2.8L134.7 140.6c-19.9 6-35.7 21.2-42.3 41L3.8 445.8c-3.8 11.3-1 23.9 7.3 32.4L164.7 324.7c-3-6.3-4.7-13.3-4.7-20.7c0-26.5 21.5-48 48-48s48 21.5 48 48s-21.5 48-48 48c-7.4 0-14.4-1.7-20.7-4.7L33.7 500.9c8.6 8.3 21.1 11.2 32.4 7.3l264.3-88.6c19.7-6.6 35-22.4 41-42.3l43.2-144.1 2.7-9.2L288 94.6z"/></symbol>
<symbol id="laptop-code" fill="currentColor" viewBox="0 0 640 512"><path d="M64 96c0-35.3 28.7-64 64-64l384 0c35.3 0 64 28.7 64 64l0 256-64 0 0-256L128 96l0 256-64 0L64 96zM0 403.2C0 392.6 8.6 384 19.2 384l601.6 0c10.6 0 19.2 8.6 19.2 19.2c0 42.4-34.4 76.8-76.8 76.8L76.8 480C34.4 480 0 445.6 0 403.2zM281 209l-31 31 31 31c9.4 9.4 9.4 24.6 0 33.9s-24.6 9.4-33.9 0l-48-48c-9.4-9.4-9.4-24.6 0-33.9l48-48c9.4-9.4 24.6-9.4 33.9 0s9.4 24.6 0 33.9zM393 175l48 48c9.4 9.4 9.4 24.6 0 33.9l-48 48c-9.4 9.4-24.6 9.4-33.9 0s-9.4-24.6 0-33.9l31-31-31-31c-9.4-9.4-9.4-24.6 0-33.9s24.6-9.4 33.9 0z"/></symbol>
</svg>
