<?xml version="1.0" standalone="no"?>
<!DOCTYPE svg PUBLIC "-//W3C//DTD SVG 20010904//EN"
 "http://www.w3.org/TR/2001/REC-SVG-20010904/DTD/svg10.dtd">
<svg version="1.0" xmlns="http://www.w3.org/2000/svg"
 width="700.000000pt" height="700.000000pt" viewBox="0 0 700.000000 700.000000"
 preserveAspectRatio="xMidYMid meet">
<metadata>
Created by potrace 1.14, written by Peter Selinger 2001-2017
</metadata>
<g transform="translate(0.000000,700.000000) scale(0.100000,-0.100000)"
fill="#000000" stroke="none">
<path d="M4063 6051 c-86 -22 -172 -91 -208 -167 -13 -29 -222 -736 -240 -814
-2 -8 -153 -537 -336 -1175 -182 -638 -340 -1189 -350 -1225 -9 -36 -29 -103
-42 -150 -14 -47 -32 -110 -40 -140 -20 -75 -244 -858 -256 -895 -41 -129 -53
-193 -48 -252 24 -248 298 -373 505 -231 92 64 71 0 541 1643 238 831 434
1517 436 1525 2 8 99 348 216 755 200 694 214 745 213 820 0 63 -5 90 -24 130
-31 64 -91 124 -155 154 -54 26 -156 36 -212 22z"/>
<path d="M1650 4927 c-25 -7 -65 -27 -90 -44 -25 -18 -306 -294 -626 -615
-460 -462 -586 -593 -604 -633 -34 -71 -34 -199 0 -270 34 -73 1202 -1240
1275 -1275 41 -20 66 -24 135 -24 102 1 160 23 224 88 66 65 90 126 91 221 0
148 21 121 -508 652 -259 260 -469 475 -466 477 2 3 211 214 465 468 521 524
509 508 509 648 0 96 -19 146 -79 216 -71 83 -213 123 -326 91z"/>
<path d="M5160 4923 c-84 -28 -151 -88 -192 -171 -18 -38 -23 -63 -22 -132 0
-141 -13 -124 508 -648 254 -254 461 -467 461 -472 0 -6 -207 -218 -461 -473
-521 -523 -509 -507 -509 -647 0 -70 4 -94 24 -135 32 -63 99 -131 159 -158
69 -32 198 -31 267 2 75 36 1243 1204 1276 1276 33 73 32 200 -1 270 -19 39
-145 172 -599 628 -317 318 -596 593 -621 611 -84 61 -196 80 -290 49z"/>
</g>
</svg>
